<svg width="32" height="32" viewBox="0 0 32 32" fill="none" xmlns="http://www.w3.org/2000/svg">
<path d="M28.6348 22.2444L23.9494 19.1818C23.4796 18.8842 22.9132 18.779 22.3678 18.8881C21.8225 18.9971 21.3401 19.312 21.021 19.7673C19.9397 21.0734 18.6332 23.2352 13.7225 18.3261C8.81176 13.417 10.9292 12.0658 12.2357 10.9849C12.6912 10.6659 13.0062 10.1837 13.1152 9.63851C13.2243 9.09334 13.1191 8.52712 12.8214 8.05749L9.75786 3.37358C9.35239 2.78809 8.81176 1.8423 7.55029 2.02245C6.28882 2.2026 3 4.04914 3 8.10253C3 12.1559 6.19872 17.1101 10.5688 21.4787C14.9389 25.8474 19.8946 29 23.9043 29C27.914 29 29.8512 25.397 29.9864 24.4962C30.1215 23.5955 29.2205 22.6497 28.6348 22.2444Z" stroke="black" stroke-miterlimit="10" stroke-linecap="round" stroke-linejoin="round"/>
</svg>
