<?xml version="1.0" encoding="utf-8"?>
<!-- Generator: Adobe Illustrator 23.1.0, SVG Export Plug-In . SVG Version: 6.00 Build 0)  -->
<svg version="1.1" id="Layer_2" xmlns="http://www.w3.org/2000/svg" xmlns:xlink="http://www.w3.org/1999/xlink" x="0px" y="0px"
	 viewBox="0 0 542.751 48.571" style="enable-background:new 0 0 542.751 48.571;" xml:space="preserve">
<style type="text/css">
	.st0{fill-rule:evenodd;clip-rule:evenodd;}
	.st1{fill-rule:evenodd;clip-rule:evenodd;fill:#F45454;}
</style>
<g>
	<polygon class="st0" points="107.012,20.973 182.7,20.973 182.7,27.989 114.029,27.989 114.029,40.446 182.7,40.446 182.7,47.463 
		114.029,47.463 107.012,47.463 107.012,40.446 107.012,27.989 107.012,20.973 	"/>
	<polygon class="st0" points="107.012,1.5 182.7,1.5 182.7,8.515 107.012,8.515 107.012,1.5 	"/>
</g>
<g>
	<polygon class="st0" points="1.067,21.015 8.083,21.015 76.755,21.015 76.755,28.031 8.083,28.031 8.083,47.504 1.067,47.504 
		1.067,28.031 1.067,21.015 	"/>
	<polygon class="st1" points="1.067,1.542 76.755,1.542 76.755,8.557 1.067,8.557 1.067,1.542 	"/>
</g>
<polygon class="st0" points="324.354,1.104 317.338,1.104 317.338,47.067 324.354,47.067 324.354,1.104 "/>
<path class="st0" d="M366.709,8.082h57.466c2.795,0,5.08,2.287,5.08,5.081v21.769c0,2.795-2.287,5.081-5.08,5.081h-57.466
	c-2.794,0-5.081-2.287-5.081-5.081V13.163C361.628,10.369,363.914,8.082,366.709,8.082L366.709,8.082z M424.175,47.029
	c6.653,0,12.096-5.444,12.096-12.098V13.163c0-6.653-5.443-12.097-12.096-12.097h-57.466c-6.653,0-12.097,5.444-12.097,12.097
	v21.769c0,6.653,5.443,12.098,12.097,12.098H424.175L424.175,47.029z"/>
<polygon class="st0" points="473.546,9.876 535.201,46.461 536.229,47.071 542.218,47.071 542.218,42.466 542.218,27.598 
	542.218,20.582 542.218,1.108 535.201,1.108 535.201,20.582 535.201,27.598 535.201,38.303 473.546,1.718 472.518,1.108 
	466.53,1.108 466.53,5.713 466.53,20.582 466.53,27.598 466.53,47.071 473.546,47.071 473.546,27.598 473.546,20.582 473.546,9.876 
	"/>
<g>
	<path class="st0" d="M224.637,8.474h6.473h46.924h2.03h4.149V1.458h-59.576c-5.036,0-9.439,2.85-11.678,7.015H224.637
		L224.637,8.474z"/>
	<path class="st0" d="M212.958,20.931c2.238,4.167,6.642,7.016,11.679,7.016h49.198c3.412,0,6.229,2.816,6.229,6.228
		c0,3.412-2.817,6.229-6.229,6.229H224.88h-3.605h-7.016v7.016h59.577c7.285,0,13.245-5.96,13.245-13.245
		c0-2.248-0.567-4.369-1.566-6.228c-2.238-4.167-6.642-7.016-11.679-7.016H231.11h-6.473H212.958L212.958,20.931z"/>
</g>
</svg>
